<svg xmlns="http://www.w3.org/2000/svg" xmlns:xlink="http://www.w3.org/1999/xlink" width="400" zoomAndPan="magnify" viewBox="0 0 300 299.999988" height="400" preserveAspectRatio="xMidYMid meet" version="1.0"><defs><g></g><clipPath id="f35ff5e9ab"><path d="M 63.582031 201 L 66 201 L 66 203.335938 L 63.582031 203.335938 Z M 63.582031 201 " clip-rule="nonzero" data-index="0"></path></clipPath><clipPath id="a5b4ff41ef"><path d="M 134 111 L 173.832031 111 L 173.832031 153 L 134 153 Z M 134 111 " clip-rule="nonzero" data-index="1"></path></clipPath><clipPath id="ddfdfcc550"><path d="M 137 60.835938 L 149 60.835938 L 149 93 L 137 93 Z M 137 60.835938 " clip-rule="nonzero" data-index="2"></path></clipPath></defs><path fill="#004aad" d="M 129.917969 126.785156 C 130.4375 126.285156 130.957031 125.796875 131.476562 125.316406 C 131.429688 125.253906 131.382812 125.1875 131.335938 125.125 C 130.863281 125.527344 130.332031 125.992188 129.746094 126.535156 C 129.75 126.542969 129.753906 126.550781 129.761719 126.558594 L 129.917969 126.785156 " fill-opacity="1" fill-rule="nonzero" data-index="3"></path><path fill="#004aad" d="M 131.089844 125.972656 C 131.019531 125.882812 130.953125 125.796875 130.886719 125.707031 C 130.394531 126.046875 130.128906 126.203125 130.128906 126.203125 C 130.441406 126.140625 130.761719 126.066406 131.089844 125.972656 " fill-opacity="1" fill-rule="nonzero" data-index="4"></path><g clip-path="url(#f35ff5e9ab)"><path fill="#004aad" d="M 64.539062 201.058594 C 64.238281 201.789062 63.933594 202.527344 63.628906 203.273438 C 63.875 203.296875 64.117188 203.316406 64.363281 203.335938 C 64.65625 202.59375 64.953125 201.851562 65.253906 201.105469 C 65.015625 201.089844 64.777344 201.074219 64.539062 201.058594 " fill-opacity="1" fill-rule="nonzero" data-index="5"></path></g><g clip-path="url(#a5b4ff41ef)"><path fill="#004aad" d="M 173.136719 136.816406 L 173.152344 136.695312 L 173.179688 136.453125 C 173.191406 136.371094 173.199219 136.289062 173.207031 136.207031 L 173.222656 135.964844 L 173.238281 135.71875 C 173.246094 135.636719 173.253906 135.554688 173.25 135.476562 L 173.257812 134.988281 C 173.257812 134.949219 173.257812 134.90625 173.257812 134.867188 L 173.246094 134.503906 C 173.238281 134.34375 173.234375 134.183594 173.21875 134.023438 L 173.175781 133.546875 C 173.167969 133.464844 173.15625 133.386719 173.144531 133.308594 L 173.113281 133.074219 C 173.074219 132.753906 173.011719 132.445312 172.957031 132.136719 L 172.933594 132.019531 L 172.90625 131.90625 L 172.855469 131.675781 C 172.820312 131.523438 172.785156 131.371094 172.746094 131.21875 L 172.625 130.769531 L 172.5625 130.542969 C 172.539062 130.46875 172.515625 130.398438 172.492188 130.324219 C 172.398438 130.027344 172.308594 129.730469 172.199219 129.445312 L 172.042969 129.011719 C 171.988281 128.867188 171.929688 128.726562 171.875 128.585938 C 171.417969 127.453125 170.886719 126.367188 170.304688 125.320312 L 169.976562 124.734375 L 169.863281 124.542969 L 169.632812 124.160156 L 169.519531 123.96875 L 169.402344 123.78125 C 169.242188 123.53125 169.085938 123.277344 168.925781 123.03125 C 168.761719 122.785156 168.601562 122.539062 168.4375 122.292969 C 167.773438 121.320312 167.082031 120.375 166.367188 119.453125 C 166.1875 119.222656 166.003906 119 165.824219 118.769531 L 165.554688 118.429688 L 165.277344 118.09375 C 165.089844 117.871094 164.90625 117.648438 164.722656 117.425781 C 164.535156 117.207031 164.34375 116.988281 164.15625 116.769531 L 163.875 116.441406 L 163.589844 116.117188 C 163.398438 115.902344 163.207031 115.6875 163.015625 115.472656 C 162.824219 115.261719 162.625 115.050781 162.433594 114.839844 L 162.140625 114.523438 L 161.996094 114.363281 L 161.847656 114.207031 C 160.957031 113.261719 160.050781 112.335938 159.136719 111.429688 C 158.761719 112.1875 158.386719 112.949219 158.003906 113.71875 C 158.253906 113.976562 158.5 114.238281 158.75 114.5 L 159.074219 114.839844 L 159.234375 115.015625 L 159.394531 115.1875 C 159.609375 115.417969 159.820312 115.648438 160.035156 115.878906 L 160.195312 116.054688 L 160.664062 116.582031 C 160.875 116.816406 161.085938 117.050781 161.292969 117.289062 C 162.945312 119.191406 164.535156 121.164062 165.949219 123.246094 C 166.660156 124.289062 167.328125 125.355469 167.933594 126.453125 C 168.535156 127.550781 169.074219 128.675781 169.511719 129.828125 C 169.542969 129.898438 169.566406 129.972656 169.589844 130.042969 L 169.746094 130.480469 L 169.785156 130.585938 L 169.816406 130.695312 C 169.90625 130.988281 170.003906 131.28125 170.078125 131.574219 L 170.136719 131.792969 C 170.15625 131.867188 170.175781 131.941406 170.191406 132.015625 L 170.292969 132.457031 L 170.316406 132.566406 L 170.335938 132.675781 L 170.414062 133.121094 L 170.425781 133.175781 L 170.433594 133.230469 L 170.445312 133.34375 L 170.503906 133.785156 L 170.539062 134.230469 L 170.550781 134.339844 C 170.554688 134.375 170.554688 134.414062 170.554688 134.449219 L 170.5625 134.667969 L 170.570312 134.890625 C 170.570312 134.964844 170.566406 135.035156 170.566406 135.109375 L 170.5625 135.328125 L 170.5625 135.4375 C 170.5625 135.476562 170.554688 135.511719 170.554688 135.546875 L 170.523438 135.984375 L 170.46875 136.414062 C 170.464844 136.484375 170.449219 136.554688 170.4375 136.625 L 170.398438 136.839844 C 170.179688 137.96875 169.75 139.046875 169.109375 140.019531 C 168.792969 140.503906 168.425781 140.96875 168.019531 141.40625 C 167.917969 141.511719 167.820312 141.625 167.710938 141.726562 L 167.550781 141.886719 C 167.496094 141.9375 167.445312 141.992188 167.386719 142.042969 L 167.050781 142.347656 L 166.703125 142.640625 C 166.226562 143.023438 165.722656 143.382812 165.203125 143.71875 L 164.804688 143.96875 C 164.671875 144.050781 164.535156 144.128906 164.398438 144.207031 C 164.265625 144.289062 164.125 144.363281 163.988281 144.4375 C 163.851562 144.515625 163.710938 144.589844 163.570312 144.660156 C 163.011719 144.957031 162.429688 145.226562 161.84375 145.480469 C 161.253906 145.738281 160.652344 145.96875 160.042969 146.195312 C 158.984375 146.578125 157.90625 146.914062 156.816406 147.214844 C 155.722656 147.515625 154.621094 147.777344 153.511719 148.011719 C 151.289062 148.480469 149.042969 148.828125 146.792969 149.101562 C 143.296875 149.527344 139.796875 149.769531 136.308594 149.890625 C 135.652344 150.753906 134.992188 151.601562 134.332031 152.429688 C 134.632812 152.429688 134.9375 152.425781 135.238281 152.421875 C 136.527344 152.402344 137.820312 152.367188 139.117188 152.3125 C 140.414062 152.257812 141.714844 152.183594 143.019531 152.089844 C 144.324219 151.992188 145.628906 151.875 146.941406 151.730469 C 148.25 151.582031 149.5625 151.410156 150.875 151.203125 C 152.1875 150.996094 153.503906 150.757812 154.816406 150.46875 L 155.308594 150.359375 L 155.800781 150.246094 L 156.292969 150.128906 L 156.785156 150.007812 L 157.273438 149.878906 L 157.519531 149.816406 L 157.765625 149.746094 L 158.253906 149.609375 L 158.746094 149.464844 L 158.988281 149.394531 L 159.230469 149.316406 L 159.71875 149.164062 L 160.207031 149 C 160.289062 148.972656 160.371094 148.949219 160.449219 148.917969 L 160.691406 148.832031 C 161.339844 148.609375 161.984375 148.359375 162.621094 148.09375 C 163.898438 147.558594 165.160156 146.941406 166.367188 146.191406 C 166.519531 146.097656 166.671875 146.007812 166.820312 145.90625 L 167.265625 145.605469 C 167.558594 145.398438 167.851562 145.191406 168.132812 144.964844 C 168.703125 144.519531 169.253906 144.035156 169.769531 143.507812 C 170.285156 142.976562 170.761719 142.398438 171.191406 141.777344 C 171.617188 141.15625 171.992188 140.492188 172.296875 139.792969 C 172.359375 139.636719 172.425781 139.484375 172.488281 139.332031 L 172.652344 138.863281 C 172.667969 138.824219 172.683594 138.785156 172.695312 138.746094 L 172.730469 138.625 L 172.800781 138.390625 L 172.867188 138.152344 L 172.984375 137.667969 C 173 137.585938 173.019531 137.507812 173.03125 137.425781 L 173.117188 136.941406 C 173.125 136.898438 173.132812 136.859375 173.136719 136.816406 " fill-opacity="1" fill-rule="nonzero" data-index="6"></path></g><g clip-path="url(#ddfdfcc550)"><path fill="#004aad" d="M 143.597656 91.027344 C 142.523438 89.246094 141.546875 87.425781 140.722656 85.5625 C 140.308594 84.628906 139.9375 83.683594 139.609375 82.730469 C 139.28125 81.773438 139 80.808594 138.78125 79.835938 C 138.347656 77.890625 138.152344 75.90625 138.320312 73.960938 C 138.40625 72.988281 138.585938 72.03125 138.859375 71.105469 C 139.136719 70.179688 139.507812 69.28125 139.96875 68.4375 C 140.425781 67.589844 140.976562 66.792969 141.59375 66.054688 C 142.210938 65.3125 142.894531 64.632812 143.625 64.003906 C 144.355469 63.378906 145.128906 62.804688 145.929688 62.277344 C 146.132812 62.148438 146.335938 62.019531 146.535156 61.890625 C 146.742188 61.765625 146.949219 61.644531 147.15625 61.523438 C 147.359375 61.398438 147.570312 61.285156 147.78125 61.171875 C 147.992188 61.058594 148.199219 60.9375 148.414062 60.832031 C 147.457031 61.269531 146.511719 61.75 145.597656 62.296875 C 144.683594 62.839844 143.800781 63.457031 142.964844 64.144531 C 142.761719 64.320312 142.558594 64.5 142.351562 64.675781 C 142.152344 64.863281 141.957031 65.050781 141.761719 65.238281 C 141.667969 65.335938 141.574219 65.4375 141.476562 65.535156 L 141.335938 65.683594 C 141.289062 65.730469 141.242188 65.78125 141.195312 65.832031 C 141.105469 65.933594 141.015625 66.039062 140.925781 66.140625 L 140.789062 66.296875 C 140.742188 66.347656 140.703125 66.402344 140.660156 66.457031 C 139.964844 67.308594 139.355469 68.242188 138.859375 69.242188 C 138.363281 70.246094 137.992188 71.316406 137.734375 72.421875 C 137.714844 72.492188 137.703125 72.5625 137.691406 72.628906 L 137.648438 72.839844 L 137.605469 73.046875 L 137.585938 73.152344 L 137.570312 73.257812 C 137.527344 73.539062 137.476562 73.820312 137.449219 74.105469 C 137.433594 74.246094 137.417969 74.386719 137.402344 74.53125 C 137.390625 74.671875 137.382812 74.816406 137.371094 74.957031 L 137.355469 75.171875 C 137.351562 75.246094 137.351562 75.316406 137.347656 75.386719 C 137.34375 75.53125 137.339844 75.675781 137.335938 75.816406 C 137.3125 76.964844 137.40625 78.117188 137.574219 79.265625 C 137.589844 79.40625 137.617188 79.550781 137.640625 79.691406 C 137.667969 79.835938 137.691406 79.980469 137.714844 80.121094 C 137.746094 80.265625 137.773438 80.40625 137.800781 80.546875 C 137.832031 80.691406 137.855469 80.832031 137.890625 80.972656 C 137.957031 81.257812 138.019531 81.542969 138.09375 81.824219 C 138.128906 81.964844 138.167969 82.105469 138.203125 82.246094 C 138.242188 82.386719 138.28125 82.527344 138.320312 82.667969 C 138.960938 84.914062 139.855469 87.097656 140.898438 89.222656 C 141.4375 90.324219 142.023438 91.40625 142.640625 92.476562 C 142.988281 92.042969 143.339844 91.613281 143.695312 91.1875 C 143.664062 91.136719 143.628906 91.082031 143.597656 91.027344 " fill-opacity="1" fill-rule="nonzero" data-index="7"></path></g><path fill="#004aad" d="M 107.910156 150.632812 C 107.636719 150.652344 107.359375 150.679688 107.082031 150.703125 C 105.976562 150.800781 104.875 150.933594 103.777344 151.105469 C 102.683594 151.28125 101.59375 151.5 100.515625 151.773438 C 100.246094 151.835938 99.980469 151.914062 99.710938 151.988281 L 99.511719 152.042969 L 99.3125 152.105469 L 98.914062 152.226562 C 98.78125 152.265625 98.648438 152.3125 98.515625 152.355469 L 98.121094 152.488281 L 97.730469 152.632812 C 97.597656 152.679688 97.46875 152.726562 97.339844 152.777344 L 96.949219 152.933594 C 96.820312 152.984375 96.691406 153.042969 96.5625 153.097656 L 96.371094 153.179688 L 96.277344 153.222656 L 96.179688 153.265625 L 95.800781 153.445312 C 95.296875 153.691406 94.800781 153.949219 94.320312 154.242188 L 94.140625 154.347656 C 94.082031 154.386719 94.019531 154.425781 93.960938 154.460938 C 93.84375 154.539062 93.726562 154.613281 93.609375 154.691406 L 93.261719 154.933594 L 93.175781 154.992188 L 93.089844 155.058594 L 92.921875 155.183594 C 92.472656 155.523438 92.039062 155.890625 91.632812 156.285156 C 91.230469 156.683594 90.847656 157.101562 90.496094 157.550781 C 90.148438 157.996094 89.835938 158.46875 89.554688 158.960938 C 88.996094 159.941406 88.589844 161 88.335938 162.082031 C 88.078125 163.160156 87.964844 164.257812 87.960938 165.339844 C 87.957031 166.417969 88.058594 167.488281 88.234375 168.53125 C 88.582031 170.621094 89.210938 172.613281 89.972656 174.515625 C 90.738281 176.421875 91.640625 178.238281 92.617188 179.988281 C 93.597656 181.738281 94.660156 183.417969 95.773438 185.035156 C 96.890625 186.652344 98.058594 188.210938 99.285156 189.699219 C 98.027344 187.992188 96.839844 186.207031 95.714844 184.359375 C 94.589844 182.511719 93.535156 180.59375 92.589844 178.605469 C 91.648438 176.613281 90.808594 174.546875 90.183594 172.40625 C 89.871094 171.332031 89.609375 170.242188 89.433594 169.136719 C 89.253906 168.03125 89.152344 166.914062 89.167969 165.796875 C 89.183594 164.679688 89.316406 163.566406 89.601562 162.496094 C 89.886719 161.425781 90.332031 160.402344 90.933594 159.476562 C 91.535156 158.546875 92.292969 157.722656 93.15625 157.015625 C 93.589844 156.660156 94.046875 156.335938 94.523438 156.035156 C 95.003906 155.738281 95.503906 155.464844 96.019531 155.214844 L 96.40625 155.035156 C 96.535156 154.976562 96.667969 154.921875 96.800781 154.863281 C 96.867188 154.835938 96.929688 154.804688 96.996094 154.777344 L 97.199219 154.699219 L 97.398438 154.621094 C 97.464844 154.59375 97.53125 154.566406 97.601562 154.542969 L 98.007812 154.394531 C 98.074219 154.367188 98.144531 154.347656 98.210938 154.324219 L 98.417969 154.253906 C 98.691406 154.160156 98.972656 154.078125 99.25 153.996094 C 100.367188 153.671875 101.515625 153.421875 102.679688 153.222656 C 103.84375 153.023438 105.027344 152.878906 106.21875 152.78125 C 106.746094 152.738281 107.277344 152.703125 107.808594 152.671875 C 107.855469 152 107.910156 151.316406 107.976562 150.628906 C 107.957031 150.628906 107.933594 150.632812 107.910156 150.632812 " fill-opacity="1" fill-rule="nonzero" data-index="8"></path><path fill="#004aad" d="M 151.039062 123.460938 C 151.039062 123.460938 143.054688 129.453125 134.921875 124.363281 C 134.921875 124.363281 144.625 124.449219 151.039062 123.460938 Z M 143.496094 136.136719 C 143.3125 136.242188 143.039062 136.386719 142.691406 136.558594 C 142.347656 136.730469 141.929688 136.929688 141.449219 137.140625 C 141.332031 137.191406 141.207031 137.242188 141.082031 137.296875 C 140.957031 137.351562 140.828125 137.40625 140.695312 137.460938 C 140.433594 137.570312 140.15625 137.679688 139.867188 137.789062 C 139.289062 138.003906 138.664062 138.210938 138.007812 138.390625 C 137.925781 138.414062 137.84375 138.4375 137.761719 138.457031 C 137.679688 138.480469 137.59375 138.503906 137.511719 138.523438 C 137.347656 138.566406 137.179688 138.609375 137.007812 138.648438 C 136.667969 138.726562 136.324219 138.792969 135.972656 138.851562 C 135.273438 138.964844 134.554688 139.03125 133.828125 139.035156 C 133.105469 139.035156 132.375 138.96875 131.664062 138.816406 C 131.789062 138.78125 131.914062 138.742188 132.042969 138.707031 L 132.425781 138.601562 L 133.1875 138.398438 C 133.695312 138.261719 134.203125 138.125 134.707031 137.996094 C 135.214844 137.863281 135.71875 137.730469 136.222656 137.605469 C 136.730469 137.484375 137.238281 137.363281 137.746094 137.242188 C 138.25 137.125 138.753906 137.007812 139.257812 136.894531 L 140.011719 136.726562 C 140.136719 136.699219 140.261719 136.671875 140.390625 136.644531 L 140.769531 136.566406 C 141.78125 136.359375 142.785156 136.160156 143.78125 135.972656 C 143.78125 135.972656 143.683594 136.03125 143.496094 136.136719 Z M 104.042969 186.304688 C 103.886719 186.578125 103.539062 186.734375 103.195312 186.695312 C 102.628906 186.625 102.316406 186.09375 102.578125 185.644531 C 102.734375 185.375 103.082031 185.214844 103.425781 185.253906 C 103.988281 185.324219 104.300781 185.855469 104.042969 186.304688 Z M 171.84375 90.25 C 171.828125 90.171875 171.789062 90.097656 171.726562 90.03125 C 171.664062 89.964844 171.582031 89.902344 171.480469 89.859375 C 170.875 89.585938 170.242188 89.347656 169.59375 89.144531 L 169.472656 89.105469 C 169.429688 89.09375 169.386719 89.082031 169.34375 89.070312 L 169.089844 89 L 168.832031 88.929688 C 168.789062 88.917969 168.746094 88.90625 168.703125 88.894531 L 168.578125 88.863281 C 168.410156 88.820312 168.238281 88.78125 168.070312 88.742188 C 167.902344 88.703125 167.734375 88.667969 167.566406 88.628906 C 166.222656 88.347656 164.894531 88.179688 163.574219 88.105469 C 162.253906 88.03125 160.945312 88.046875 159.648438 88.140625 C 159.324219 88.167969 159 88.191406 158.675781 88.226562 C 158.355469 88.261719 158.035156 88.296875 157.714844 88.339844 C 157.390625 88.378906 157.082031 88.433594 156.761719 88.484375 L 156.285156 88.5625 L 156.046875 88.605469 L 155.816406 88.648438 C 155.816406 88.648438 155.679688 88.671875 155.425781 88.726562 C 155.296875 88.757812 155.140625 88.792969 154.953125 88.84375 C 154.863281 88.867188 154.761719 88.894531 154.65625 88.925781 C 154.550781 88.957031 154.441406 88.992188 154.324219 89.03125 C 153.859375 89.183594 153.277344 89.386719 152.648438 89.679688 C 152.488281 89.75 152.324219 89.828125 152.15625 89.910156 C 152.070312 89.949219 151.984375 89.992188 151.898438 90.035156 C 151.8125 90.078125 151.726562 90.125 151.640625 90.171875 C 151.292969 90.359375 150.929688 90.566406 150.550781 90.792969 C 150.183594 91.027344 149.804688 91.285156 149.414062 91.5625 C 149.214844 91.699219 149.027344 91.851562 148.832031 92.003906 C 148.636719 92.15625 148.441406 92.320312 148.242188 92.484375 C 148.144531 92.566406 148.042969 92.652344 147.945312 92.738281 C 147.847656 92.824219 147.75 92.914062 147.652344 93.003906 C 147.460938 93.183594 147.265625 93.375 147.066406 93.566406 C 146.96875 93.664062 146.871094 93.761719 146.773438 93.863281 C 146.75 93.886719 146.726562 93.910156 146.699219 93.9375 C 146.675781 93.960938 146.652344 93.988281 146.628906 94.011719 C 146.582031 94.066406 146.535156 94.117188 146.488281 94.171875 C 146.296875 94.378906 146.105469 94.59375 145.917969 94.816406 C 145.535156 95.257812 145.179688 95.734375 144.820312 96.238281 C 144.730469 96.363281 144.640625 96.488281 144.554688 96.617188 C 144.507812 96.679688 144.464844 96.746094 144.421875 96.8125 C 144.378906 96.878906 144.335938 96.941406 144.296875 97.007812 C 144.128906 97.277344 143.960938 97.550781 143.796875 97.828125 C 143.714844 97.96875 143.636719 98.109375 143.554688 98.25 C 143.515625 98.324219 143.472656 98.394531 143.4375 98.464844 C 143.398438 98.539062 143.363281 98.613281 143.324219 98.6875 C 143.171875 98.984375 143.023438 99.285156 142.878906 99.589844 C 142.808594 99.746094 142.738281 99.898438 142.667969 100.058594 C 142.632812 100.136719 142.597656 100.214844 142.566406 100.292969 C 142.53125 100.375 142.5 100.453125 142.46875 100.535156 C 142.339844 100.859375 142.214844 101.1875 142.09375 101.523438 C 142.09375 101.523438 142.042969 101.410156 142.027344 101.117188 C 142.015625 100.96875 142.015625 100.777344 142.035156 100.535156 C 142.042969 100.414062 142.058594 100.28125 142.078125 100.132812 C 142.089844 100.058594 142.101562 99.980469 142.113281 99.898438 C 142.121094 99.855469 142.128906 99.816406 142.132812 99.773438 C 142.140625 99.730469 142.152344 99.6875 142.160156 99.644531 C 142.234375 99.289062 142.34375 98.878906 142.496094 98.394531 C 142.574219 98.152344 142.660156 97.894531 142.765625 97.617188 C 142.871094 97.34375 142.992188 97.050781 143.132812 96.738281 C 143.269531 96.425781 143.421875 96.09375 143.59375 95.742188 C 143.773438 95.390625 143.972656 95.023438 144.195312 94.632812 C 144.304688 94.4375 144.421875 94.234375 144.542969 94.027344 C 144.667969 93.824219 144.800781 93.613281 144.9375 93.398438 C 145.078125 93.183594 145.222656 92.964844 145.375 92.738281 C 145.449219 92.625 145.527344 92.507812 145.609375 92.390625 C 145.691406 92.277344 145.773438 92.160156 145.859375 92.042969 L 145.539062 92.199219 C 145.484375 92.226562 145.433594 92.253906 145.382812 92.28125 L 145.226562 92.359375 L 144.605469 92.6875 L 143.980469 93.019531 C 143.878906 93.074219 143.777344 93.132812 143.675781 93.191406 L 143.375 93.363281 L 142.472656 93.890625 L 142.320312 93.980469 C 142.269531 94.011719 142.21875 94.039062 142.171875 94.070312 C 141.78125 94.3125 141.394531 94.558594 141.003906 94.808594 L 140.714844 94.996094 L 140.566406 95.089844 L 140.425781 95.1875 L 139.863281 95.574219 L 139.300781 95.964844 C 139.113281 96.097656 138.925781 96.226562 138.746094 96.363281 C 138.382812 96.628906 138.023438 96.902344 137.664062 97.175781 L 137.394531 97.378906 L 137.257812 97.484375 L 137.128906 97.589844 L 136.605469 98.007812 C 133.824219 100.261719 131.332031 102.71875 129.101562 105.277344 C 129.054688 105.328125 129.011719 105.382812 128.964844 105.433594 L 128.835938 105.59375 C 128.746094 105.703125 128.660156 105.808594 128.574219 105.917969 C 128.402344 106.136719 128.238281 106.355469 128.074219 106.578125 C 127.914062 106.800781 127.757812 107.027344 127.605469 107.257812 C 127.566406 107.3125 127.53125 107.371094 127.496094 107.429688 L 127.390625 107.601562 C 127.320312 107.71875 127.25 107.835938 127.183594 107.953125 C 126.910156 108.421875 126.660156 108.898438 126.425781 109.382812 L 126.34375 109.566406 C 126.3125 109.625 126.289062 109.6875 126.261719 109.75 C 126.210938 109.871094 126.160156 109.992188 126.109375 110.117188 C 126.011719 110.363281 125.917969 110.609375 125.828125 110.859375 C 125.742188 111.109375 125.65625 111.359375 125.582031 111.609375 C 125.542969 111.734375 125.503906 111.859375 125.46875 111.988281 C 125.449219 112.050781 125.433594 112.113281 125.417969 112.175781 L 125.371094 112.367188 C 125.246094 112.875 125.148438 113.382812 125.070312 113.894531 C 125.03125 114.148438 125 114.40625 124.972656 114.660156 C 124.960938 114.789062 124.949219 114.914062 124.9375 115.042969 C 124.929688 115.171875 124.921875 115.300781 124.917969 115.429688 C 124.894531 115.941406 124.898438 116.453125 124.925781 116.960938 C 124.941406 117.269531 124.960938 117.574219 124.984375 117.871094 C 124.996094 118.015625 125.011719 118.164062 125.027344 118.308594 C 125.027344 118.34375 125.03125 118.378906 125.035156 118.414062 C 125.039062 118.449219 125.042969 118.484375 125.050781 118.523438 C 125.058594 118.59375 125.066406 118.664062 125.078125 118.734375 C 125.152344 119.292969 125.242188 119.816406 125.355469 120.289062 C 125.578125 121.230469 125.878906 121.96875 126.265625 122.398438 C 126.265625 122.398438 126.15625 122.351562 125.953125 122.171875 C 125.75 121.988281 125.453125 121.679688 125.085938 121.144531 C 124.71875 120.609375 124.28125 119.855469 123.804688 118.785156 C 123.683594 118.515625 123.5625 118.226562 123.4375 117.917969 C 123.316406 117.605469 123.1875 117.273438 123.066406 116.921875 C 122.820312 116.210938 122.570312 115.40625 122.324219 114.496094 C 119.800781 118.554688 117.742188 122.667969 116.050781 126.695312 C 114.359375 130.726562 113.035156 134.671875 111.976562 138.425781 C 111.890625 138.742188 111.808594 139.0625 111.734375 139.378906 C 111.664062 139.695312 111.59375 140.015625 111.546875 140.339844 C 111.441406 140.980469 111.371094 141.625 111.335938 142.273438 C 111.316406 142.59375 111.308594 142.917969 111.304688 143.242188 C 111.304688 143.402344 111.308594 143.5625 111.308594 143.726562 C 111.3125 143.804688 111.3125 143.886719 111.316406 143.964844 L 111.332031 144.207031 C 111.371094 144.851562 111.441406 145.492188 111.550781 146.128906 C 111.632812 146.628906 111.726562 147.113281 111.824219 147.574219 C 111.875 147.804688 111.925781 148.027344 111.980469 148.242188 C 112.035156 148.460938 112.09375 148.667969 112.15625 148.871094 C 112.394531 149.667969 112.667969 150.320312 112.972656 150.730469 C 112.972656 150.730469 112.640625 150.34375 112.105469 149.605469 C 111.835938 149.238281 111.519531 148.785156 111.167969 148.25 C 111.082031 148.113281 110.992188 147.976562 110.898438 147.832031 C 110.808594 147.6875 110.714844 147.535156 110.621094 147.382812 C 110.433594 147.074219 110.242188 146.746094 110.042969 146.398438 C 109.832031 147.378906 109.660156 148.339844 109.492188 149.28125 C 109.410156 149.75 109.328125 150.210938 109.25 150.671875 C 109.210938 150.898438 109.171875 151.125 109.132812 151.351562 C 109.097656 151.578125 109.066406 151.800781 109.03125 152.027344 C 108.898438 152.917969 108.773438 153.785156 108.65625 154.621094 C 108.628906 154.832031 108.601562 155.042969 108.570312 155.246094 C 108.5625 155.300781 108.558594 155.351562 108.550781 155.402344 C 108.542969 155.453125 108.539062 155.503906 108.53125 155.554688 C 108.519531 155.660156 108.507812 155.761719 108.496094 155.863281 C 108.449219 156.269531 108.402344 156.671875 108.359375 157.0625 C 108.269531 157.847656 108.191406 158.605469 108.117188 159.332031 C 108.109375 159.421875 108.101562 159.511719 108.09375 159.601562 C 108.085938 159.691406 108.078125 159.78125 108.070312 159.867188 C 108.054688 160.046875 108.039062 160.222656 108.023438 160.398438 C 108 160.746094 107.972656 161.085938 107.945312 161.417969 C 107.894531 162.082031 107.851562 162.714844 107.8125 163.3125 C 107.800781 163.460938 107.792969 163.609375 107.785156 163.753906 C 107.773438 163.902344 107.765625 164.042969 107.761719 164.183594 C 107.746094 164.46875 107.734375 164.742188 107.722656 165.007812 C 107.722656 165.050781 107.714844 165.097656 107.699219 165.140625 L 107.0625 167.0625 L 106.742188 168.023438 L 106.664062 168.265625 L 106.585938 168.503906 L 106.433594 168.988281 L 105.820312 170.914062 L 105.515625 171.878906 L 105.359375 172.359375 L 105.210938 172.84375 L 104.554688 175 L 104.59375 175.011719 C 104.507812 175.289062 104.421875 175.566406 104.335938 175.84375 C 104.054688 176.761719 103.785156 177.671875 103.53125 178.570312 C 103.46875 178.792969 103.40625 179.015625 103.34375 179.238281 C 103.28125 179.460938 103.222656 179.683594 103.164062 179.90625 C 103.046875 180.347656 102.933594 180.789062 102.820312 181.226562 C 102.730469 181.578125 102.644531 181.929688 102.558594 182.277344 L 100.089844 190.851562 C 100.03125 191.042969 100.316406 191.160156 100.449219 191.003906 C 101.957031 189.191406 105.097656 186.914062 105.980469 186.285156 C 106.085938 186.210938 106.0625 186.066406 105.941406 186.019531 C 105.117188 185.699219 104.464844 185.15625 103.964844 184.582031 C 104.871094 181.527344 105.773438 178.585938 106.667969 175.75 L 106.691406 175.757812 L 107.316406 173.753906 C 107.472656 173.25 107.640625 172.746094 107.804688 172.242188 L 108.296875 170.730469 L 108.789062 169.222656 C 108.867188 168.96875 108.957031 168.71875 109.042969 168.46875 L 109.296875 167.714844 L 109.808594 166.210938 L 110.066406 165.457031 L 110.191406 165.082031 L 110.257812 164.890625 L 111.652344 160.953125 L 111.929688 160.203125 L 112.480469 158.710938 L 113.035156 157.214844 C 113.082031 157.089844 113.128906 156.964844 113.175781 156.84375 L 113.320312 156.46875 L 113.609375 155.726562 L 114.183594 154.234375 L 114.46875 153.492188 C 114.566406 153.242188 114.667969 152.996094 114.765625 152.75 L 115.960938 149.785156 L 117.203125 146.832031 C 118.882812 142.90625 120.671875 139.011719 122.605469 135.164062 C 123.074219 134.203125 123.585938 133.25 124.078125 132.292969 L 124.453125 131.574219 L 124.5 131.488281 L 124.546875 131.398438 L 124.644531 131.21875 L 124.839844 130.863281 L 125.613281 129.441406 L 125.804688 129.085938 C 125.871094 128.964844 125.933594 128.847656 126.003906 128.730469 L 126.402344 128.023438 L 127.207031 126.613281 L 127.308594 126.4375 L 127.359375 126.347656 L 127.410156 126.261719 L 127.617188 125.910156 L 128.035156 125.210938 L 128.449219 124.511719 L 128.660156 124.160156 L 128.761719 123.984375 C 128.796875 123.929688 128.835938 123.871094 128.871094 123.8125 L 129.734375 122.425781 L 130.164062 121.734375 C 130.3125 121.503906 130.460938 121.273438 130.609375 121.046875 L 131.503906 119.671875 L 131.617188 119.5 L 131.730469 119.332031 L 131.964844 118.992188 L 132.425781 118.3125 L 132.890625 117.632812 L 133.007812 117.464844 C 133.046875 117.40625 133.085938 117.351562 133.125 117.296875 L 133.367188 116.960938 L 134.324219 115.617188 C 134.367188 115.5625 134.40625 115.507812 134.445312 115.453125 L 134.570312 115.285156 L 134.820312 114.953125 L 135.316406 114.292969 L 135.8125 113.628906 L 136.328125 112.976562 L 136.839844 112.324219 L 137.097656 111.996094 C 137.140625 111.941406 137.183594 111.886719 137.226562 111.832031 L 137.359375 111.671875 L 138.425781 110.386719 L 138.558594 110.226562 C 138.601562 110.171875 138.648438 110.121094 138.695312 110.066406 L 138.96875 109.75 L 139.519531 109.117188 L 139.796875 108.800781 L 139.933594 108.644531 C 139.980469 108.589844 140.027344 108.539062 140.078125 108.488281 L 140.644531 107.867188 C 142.164062 106.210938 143.765625 104.601562 145.472656 103.074219 L 145.359375 103.175781 C 145.320312 103.210938 145.285156 103.246094 145.25 103.28125 L 145.03125 103.488281 L 144.59375 103.90625 L 144.160156 104.328125 L 144.050781 104.429688 L 143.996094 104.484375 L 143.945312 104.539062 L 143.734375 104.753906 L 142.894531 105.609375 L 142.683594 105.824219 L 142.480469 106.042969 L 142.074219 106.476562 L 141.464844 107.132812 C 141.429688 107.167969 141.394531 107.207031 141.363281 107.242188 L 141.261719 107.355469 L 140.476562 108.246094 L 140.085938 108.691406 C 139.957031 108.839844 139.832031 108.992188 139.703125 109.140625 L 138.945312 110.046875 C 136.941406 112.472656 135.097656 114.984375 133.375 117.546875 C 131.652344 120.113281 130.054688 122.730469 128.542969 125.382812 L 127.976562 126.378906 L 127.835938 126.628906 L 127.699219 126.878906 L 127.425781 127.382812 L 126.878906 128.382812 L 126.609375 128.886719 L 126.472656 129.136719 L 126.339844 129.390625 L 125.289062 131.410156 L 125.160156 131.664062 L 125.09375 131.789062 L 125.03125 131.914062 L 124.777344 132.425781 L 124.269531 133.441406 L 123.765625 134.457031 C 123.722656 134.542969 123.683594 134.628906 123.644531 134.714844 L 123.519531 134.96875 L 123.277344 135.480469 C 122.953125 136.164062 122.628906 136.847656 122.308594 137.53125 L 121.371094 139.589844 L 121.140625 140.105469 C 121.0625 140.277344 120.980469 140.449219 120.90625 140.621094 L 120.007812 142.691406 L 119.671875 143.46875 L 119.5625 143.726562 L 118.695312 145.808594 L 118.265625 146.851562 L 117.847656 147.894531 L 117.019531 149.984375 L 116.914062 150.246094 C 116.878906 150.335938 116.847656 150.421875 116.8125 150.507812 L 116.613281 151.035156 L 116.214844 152.085938 L 115.816406 153.132812 C 115.683594 153.484375 115.546875 153.832031 115.421875 154.183594 L 114.273438 157.347656 C 114.207031 157.523438 114.148438 157.699219 114.085938 157.875 L 113.902344 158.40625 L 113.167969 160.519531 L 112.984375 161.050781 L 112.890625 161.3125 L 112.800781 161.578125 L 112.449219 162.640625 L 111.742188 164.765625 L 111.566406 165.292969 L 111.394531 165.828125 L 111.058594 166.890625 C 110.914062 167.347656 111.453125 167.726562 111.847656 167.449219 C 112.449219 167.03125 113.042969 166.609375 113.628906 166.191406 C 113.925781 165.984375 114.21875 165.773438 114.507812 165.570312 C 114.800781 165.359375 115.085938 165.152344 115.375 164.949219 C 115.949219 164.539062 116.511719 164.125 117.066406 163.71875 C 117.34375 163.511719 117.617188 163.308594 117.890625 163.105469 C 118.164062 162.90625 118.4375 162.703125 118.710938 162.503906 C 119.253906 162.101562 119.789062 161.699219 120.3125 161.300781 C 120.574219 161.101562 120.835938 160.902344 121.09375 160.703125 C 121.351562 160.507812 121.605469 160.304688 121.863281 160.109375 C 122.890625 159.324219 123.878906 158.546875 124.835938 157.773438 C 128.6875 154.695312 132.074219 151.757812 135.058594 148.941406 C 134.125 149.078125 133.273438 149.1875 132.496094 149.273438 C 131.726562 149.359375 131.03125 149.425781 130.40625 149.46875 C 129.160156 149.558594 128.191406 149.5625 127.457031 149.527344 C 126.726562 149.496094 126.226562 149.421875 125.910156 149.355469 C 125.59375 149.289062 125.464844 149.230469 125.464844 149.230469 C 126.898438 149.613281 128.507812 149.4375 130.113281 148.972656 C 130.3125 148.914062 130.511719 148.851562 130.710938 148.785156 C 130.8125 148.753906 130.914062 148.71875 131.011719 148.683594 C 131.113281 148.648438 131.214844 148.609375 131.3125 148.574219 C 131.714844 148.429688 132.113281 148.269531 132.511719 148.097656 C 133.296875 147.757812 134.0625 147.375 134.789062 146.980469 C 134.96875 146.882812 135.148438 146.785156 135.328125 146.6875 C 135.507812 146.589844 135.679688 146.492188 135.851562 146.394531 C 136.195312 146.199219 136.523438 146.003906 136.839844 145.8125 C 137.152344 145.621094 137.453125 145.433594 137.734375 145.257812 C 138.011719 145.078125 138.277344 144.90625 138.523438 144.75 C 139.5 144.121094 140.144531 143.660156 140.289062 143.582031 C 140.304688 143.574219 140.324219 143.578125 140.339844 143.589844 C 140.355469 143.605469 140.382812 143.605469 140.398438 143.589844 C 142.933594 140.882812 145.09375 138.296875 146.953125 135.808594 C 148.808594 133.320312 150.363281 130.933594 151.683594 128.625 C 151.765625 128.480469 151.84375 128.335938 151.925781 128.191406 C 152.007812 128.046875 152.085938 127.90625 152.167969 127.765625 C 152.328125 127.480469 152.480469 127.195312 152.632812 126.910156 C 152.667969 126.839844 152.707031 126.765625 152.742188 126.695312 L 152.796875 126.585938 L 152.855469 126.484375 C 152.929688 126.34375 153.003906 126.203125 153.078125 126.0625 C 153.222656 125.785156 153.363281 125.503906 153.5 125.222656 C 153.535156 125.152344 153.570312 125.078125 153.601562 125.007812 C 153.636719 124.941406 153.671875 124.871094 153.707031 124.804688 C 153.777344 124.667969 153.84375 124.527344 153.910156 124.390625 C 154.042969 124.117188 154.171875 123.835938 154.296875 123.558594 C 154.328125 123.488281 154.359375 123.421875 154.394531 123.355469 C 154.425781 123.285156 154.457031 123.21875 154.488281 123.152344 C 154.550781 123.015625 154.613281 122.878906 154.675781 122.742188 C 154.734375 122.605469 154.796875 122.46875 154.855469 122.332031 C 154.886719 122.265625 154.914062 122.195312 154.945312 122.125 C 154.972656 122.058594 155 121.988281 155.03125 121.921875 C 155.972656 119.757812 156.761719 117.65625 157.484375 115.59375 C 157.175781 115.625 156.875 115.652344 156.582031 115.683594 C 156.285156 115.722656 155.996094 115.757812 155.710938 115.792969 C 155.566406 115.8125 155.425781 115.832031 155.285156 115.847656 C 155.214844 115.855469 155.144531 115.867188 155.074219 115.875 C 155.039062 115.878906 155.007812 115.882812 154.972656 115.886719 C 154.9375 115.890625 154.902344 115.898438 154.867188 115.902344 C 154.589844 115.945312 154.320312 115.984375 154.058594 116.027344 C 153.789062 116.066406 153.53125 116.105469 153.277344 116.140625 C 153.242188 116.144531 153.210938 116.152344 153.179688 116.15625 C 153.148438 116.160156 153.117188 116.167969 153.085938 116.171875 C 153.023438 116.183594 152.960938 116.195312 152.898438 116.203125 C 152.773438 116.226562 152.652344 116.246094 152.53125 116.265625 C 152.285156 116.308594 152.046875 116.347656 151.8125 116.386719 C 151.695312 116.40625 151.582031 116.425781 151.464844 116.441406 C 151.410156 116.453125 151.351562 116.460938 151.296875 116.46875 C 151.238281 116.480469 151.183594 116.492188 151.128906 116.5 C 150.6875 116.582031 150.265625 116.65625 149.863281 116.722656 C 149.660156 116.757812 149.464844 116.789062 149.273438 116.820312 C 149.175781 116.835938 149.085938 116.855469 148.992188 116.871094 C 148.898438 116.886719 148.808594 116.902344 148.71875 116.917969 C 148.363281 116.980469 148.023438 117.039062 147.707031 117.089844 C 147.546875 117.113281 147.394531 117.136719 147.242188 117.160156 C 147.167969 117.171875 147.097656 117.183594 147.023438 117.191406 C 146.953125 117.203125 146.878906 117.210938 146.8125 117.222656 C 145.710938 117.398438 144.921875 117.472656 144.410156 117.5 C 144.347656 117.5 144.289062 117.503906 144.230469 117.507812 C 144.175781 117.507812 144.125 117.511719 144.082031 117.511719 C 143.988281 117.515625 143.914062 117.515625 143.851562 117.515625 C 143.730469 117.515625 143.675781 117.511719 143.675781 117.511719 C 143.773438 117.5 143.875 117.484375 143.980469 117.46875 C 144.03125 117.460938 144.082031 117.449219 144.136719 117.441406 C 144.1875 117.429688 144.242188 117.421875 144.296875 117.410156 C 144.507812 117.367188 144.730469 117.316406 144.953125 117.261719 C 145.398438 117.144531 145.859375 116.996094 146.335938 116.820312 C 146.390625 116.796875 146.453125 116.777344 146.515625 116.753906 C 146.574219 116.734375 146.632812 116.710938 146.695312 116.6875 C 146.816406 116.644531 146.9375 116.597656 147.0625 116.550781 C 147.304688 116.457031 147.554688 116.355469 147.800781 116.25 C 148.296875 116.03125 148.8125 115.820312 149.320312 115.582031 C 149.449219 115.527344 149.578125 115.464844 149.703125 115.40625 C 149.769531 115.375 149.832031 115.34375 149.894531 115.316406 L 149.992188 115.269531 L 150.089844 115.226562 C 150.347656 115.109375 150.605469 114.988281 150.863281 114.867188 C 150.992188 114.804688 151.121094 114.746094 151.25 114.683594 L 151.441406 114.589844 L 151.535156 114.542969 C 151.566406 114.527344 151.601562 114.511719 151.632812 114.5 C 151.890625 114.378906 152.148438 114.257812 152.402344 114.140625 C 152.527344 114.078125 152.652344 114.015625 152.78125 113.957031 C 152.84375 113.925781 152.90625 113.894531 152.96875 113.863281 C 153.03125 113.832031 153.09375 113.808594 153.15625 113.777344 C 153.410156 113.664062 153.65625 113.546875 153.902344 113.429688 C 154.023438 113.375 154.144531 113.316406 154.265625 113.257812 L 154.355469 113.214844 L 154.449219 113.175781 C 154.507812 113.148438 154.566406 113.121094 154.628906 113.09375 C 154.867188 112.988281 155.105469 112.878906 155.335938 112.773438 C 155.636719 112.628906 155.9375 112.488281 156.21875 112.324219 C 156.359375 112.238281 156.5 112.15625 156.632812 112.0625 L 156.734375 111.996094 L 156.832031 111.929688 C 156.898438 111.886719 156.964844 111.839844 157.03125 111.796875 C 157.160156 111.703125 157.285156 111.605469 157.40625 111.503906 C 157.46875 111.453125 157.53125 111.402344 157.589844 111.351562 L 157.675781 111.269531 L 157.765625 111.195312 C 158 110.988281 158.222656 110.765625 158.429688 110.527344 C 159.269531 109.59375 159.921875 108.472656 160.414062 107.160156 C 160.511719 106.898438 160.605469 106.640625 160.703125 106.386719 C 160.804688 106.128906 160.902344 105.875 161 105.625 C 161.050781 105.5 161.101562 105.371094 161.152344 105.246094 C 161.207031 105.121094 161.257812 104.996094 161.308594 104.871094 C 161.410156 104.625 161.515625 104.371094 161.621094 104.125 C 161.726562 103.878906 161.835938 103.636719 161.941406 103.394531 C 161.96875 103.332031 161.996094 103.269531 162.023438 103.210938 C 162.050781 103.148438 162.078125 103.085938 162.105469 103.027344 C 162.160156 102.910156 162.214844 102.789062 162.269531 102.671875 C 162.328125 102.550781 162.382812 102.429688 162.441406 102.3125 C 162.46875 102.253906 162.496094 102.195312 162.523438 102.132812 L 162.566406 102.042969 L 162.609375 101.957031 C 162.726562 101.722656 162.84375 101.492188 162.957031 101.261719 C 163.074219 101.027344 163.195312 100.804688 163.316406 100.578125 C 163.375 100.464844 163.4375 100.351562 163.496094 100.238281 C 163.527344 100.183594 163.558594 100.128906 163.585938 100.070312 C 163.617188 100.015625 163.648438 99.960938 163.679688 99.90625 C 163.804688 99.6875 163.929688 99.472656 164.054688 99.253906 C 164.085938 99.199219 164.117188 99.144531 164.148438 99.089844 C 164.179688 99.039062 164.210938 98.984375 164.242188 98.933594 C 164.308594 98.828125 164.371094 98.722656 164.4375 98.617188 C 164.5 98.511719 164.566406 98.410156 164.628906 98.304688 C 164.660156 98.253906 164.695312 98.199219 164.726562 98.152344 C 164.761719 98.101562 164.792969 98.050781 164.824219 98 C 164.957031 97.796875 165.089844 97.597656 165.222656 97.398438 C 165.289062 97.300781 165.355469 97.203125 165.421875 97.109375 C 165.488281 97.011719 165.558594 96.914062 165.625 96.820312 C 165.691406 96.726562 165.757812 96.632812 165.828125 96.539062 C 165.894531 96.441406 165.960938 96.355469 166.03125 96.261719 C 166.167969 96.082031 166.304688 95.902344 166.441406 95.722656 C 166.578125 95.550781 166.714844 95.378906 166.855469 95.210938 C 166.921875 95.128906 166.992188 95.042969 167.058594 94.960938 C 167.128906 94.878906 167.199219 94.800781 167.265625 94.722656 C 167.40625 94.5625 167.542969 94.40625 167.679688 94.253906 C 167.960938 93.953125 168.230469 93.660156 168.503906 93.394531 C 168.570312 93.328125 168.636719 93.261719 168.707031 93.195312 C 168.773438 93.128906 168.839844 93.066406 168.90625 93.003906 C 169.042969 92.878906 169.175781 92.757812 169.304688 92.636719 C 170.328125 91.703125 171.171875 91.046875 171.683594 90.660156 C 171.828125 90.550781 171.878906 90.398438 171.84375 90.25 " fill-opacity="1" fill-rule="nonzero" data-index="9"></path><g fill="#004aad" fill-opacity="1"><g transform="translate(110.422552, 187.185697)"><g><path d="M 1.992188 -15.433594 L 0.144531 -15.433594 L 1.375 -19.53125 L 6.089844 -19.53125 L 6.089844 -4.128906 L 10.921875 -4.128906 L 9.722656 0 L 1.992188 0 Z M 1.992188 -15.433594 " data-index="10"></path></g></g></g><g fill="#004aad" fill-opacity="1"><g transform="translate(121.578206, 187.185697)"><g><path d="M 10.777344 -19.765625 C 12.144531 -19.765625 13.433594 -19.503906 14.640625 -18.976562 C 15.851562 -18.449219 16.902344 -17.726562 17.789062 -16.808594 C 18.679688 -15.890625 19.382812 -14.8125 19.898438 -13.574219 C 20.417969 -12.332031 20.675781 -11.011719 20.675781 -9.605469 C 20.675781 -8.277344 20.40625 -7.019531 19.871094 -5.828125 C 19.332031 -4.636719 18.609375 -3.59375 17.703125 -2.695312 C 16.792969 -1.796875 15.734375 -1.082031 14.523438 -0.554688 C 13.316406 -0.0273438 12.035156 0.234375 10.6875 0.234375 C 9.320312 0.234375 8.035156 -0.0273438 6.824219 -0.554688 C 5.613281 -1.082031 4.558594 -1.800781 3.660156 -2.707031 C 2.761719 -3.617188 2.050781 -4.675781 1.523438 -5.886719 C 0.996094 -7.097656 0.730469 -8.394531 0.730469 -9.78125 C 0.730469 -11.167969 0.992188 -12.46875 1.507812 -13.691406 C 2.027344 -14.910156 2.738281 -15.96875 3.644531 -16.867188 C 4.554688 -17.765625 5.617188 -18.472656 6.835938 -18.992188 C 8.058594 -19.507812 9.371094 -19.765625 10.777344 -19.765625 Z M 10.71875 -15.667969 C 9.917969 -15.667969 9.164062 -15.515625 8.464844 -15.214844 C 7.761719 -14.910156 7.144531 -14.492188 6.617188 -13.953125 C 6.089844 -13.417969 5.675781 -12.789062 5.375 -12.066406 C 5.070312 -11.34375 4.917969 -10.570312 4.917969 -9.75 C 4.917969 -8.933594 5.070312 -8.164062 5.375 -7.453125 C 5.675781 -6.742188 6.089844 -6.121094 6.617188 -5.59375 C 7.144531 -5.066406 7.753906 -4.644531 8.449219 -4.335938 C 9.140625 -4.023438 9.886719 -3.867188 10.6875 -3.867188 C 11.46875 -3.867188 12.207031 -4.023438 12.898438 -4.335938 C 13.59375 -4.644531 14.203125 -5.066406 14.730469 -5.59375 C 15.257812 -6.121094 15.675781 -6.734375 15.988281 -7.4375 C 16.300781 -8.140625 16.457031 -8.882812 16.457031 -9.664062 C 16.457031 -10.503906 16.304688 -11.285156 16.003906 -12.007812 C 15.703125 -12.730469 15.292969 -13.363281 14.773438 -13.910156 C 14.257812 -14.457031 13.652344 -14.886719 12.957031 -15.199219 C 12.265625 -15.511719 11.519531 -15.667969 10.71875 -15.667969 Z M 10.71875 -15.667969 " data-index="11"></path></g></g></g><g fill="#004aad" fill-opacity="1"><g transform="translate(142.95255, 187.185697)"><g><path d="M 11.214844 -11.097656 L 20.585938 -11.097656 L 20.617188 -10.191406 C 20.617188 -8.726562 20.363281 -7.359375 19.855469 -6.089844 C 19.347656 -4.820312 18.644531 -3.71875 17.746094 -2.78125 C 16.847656 -1.84375 15.800781 -1.109375 14.597656 -0.570312 C 13.398438 -0.0351562 12.105469 0.234375 10.71875 0.234375 C 9.332031 0.234375 8.035156 -0.0273438 6.824219 -0.554688 C 5.613281 -1.082031 4.558594 -1.800781 3.660156 -2.707031 C 2.761719 -3.617188 2.050781 -4.675781 1.523438 -5.886719 C 0.996094 -7.097656 0.730469 -8.394531 0.730469 -9.78125 C 0.730469 -11.148438 0.996094 -12.441406 1.523438 -13.660156 C 2.050781 -14.882812 2.761719 -15.941406 3.660156 -16.839844 C 4.558594 -17.738281 5.613281 -18.449219 6.824219 -18.976562 C 8.035156 -19.503906 9.320312 -19.765625 10.6875 -19.765625 C 11.234375 -19.765625 11.753906 -19.726562 12.242188 -19.648438 C 12.730469 -19.570312 13.210938 -19.453125 13.691406 -19.296875 C 14.167969 -19.140625 14.65625 -18.9375 15.15625 -18.683594 C 15.652344 -18.429688 16.183594 -18.117188 16.75 -17.746094 L 17.25 -18.128906 L 19.972656 -15.667969 L 15.929688 -12.914062 C 15.1875 -13.871094 14.402344 -14.570312 13.574219 -15.007812 C 12.742188 -15.449219 11.800781 -15.667969 10.746094 -15.667969 C 9.925781 -15.667969 9.164062 -15.515625 8.464844 -15.214844 C 7.761719 -14.910156 7.144531 -14.492188 6.617188 -13.953125 C 6.089844 -13.417969 5.675781 -12.792969 5.375 -12.078125 C 5.070312 -11.367188 4.917969 -10.601562 4.917969 -9.78125 C 4.917969 -8.960938 5.070312 -8.191406 5.375 -7.46875 C 5.675781 -6.746094 6.089844 -6.121094 6.617188 -5.59375 C 7.144531 -5.066406 7.761719 -4.644531 8.464844 -4.335938 C 9.164062 -4.023438 9.917969 -3.867188 10.71875 -3.867188 C 11.910156 -3.867188 12.976562 -4.1875 13.925781 -4.832031 C 14.871094 -5.476562 15.597656 -6.382812 16.105469 -7.554688 L 10.160156 -7.554688 Z M 11.214844 -11.097656 " data-index="12"></path></g></g></g><g fill="#004aad" fill-opacity="1"><g transform="translate(164.268335, 187.185697)"><g><path d="M 1.960938 -15.433594 L -0.0585938 -15.433594 L 1.171875 -19.53125 L 6.0625 -19.53125 L 6.0625 0 L 1.960938 0 Z M 1.960938 -15.433594 " data-index="13"></path></g></g></g><g fill="#004aad" fill-opacity="1"><g transform="translate(172.261757, 187.185697)"><g><path d="M 5.125 -10.335938 L -0.0273438 -19.53125 L 4.714844 -19.53125 L 7.90625 -12.945312 L 11.070312 -19.53125 L 15.753906 -19.53125 L 10.6875 -10.335938 L 16.164062 0 L 11.449219 0 L 7.90625 -7.144531 L 4.453125 0 L -0.261719 0 Z M 5.125 -10.335938 " data-index="14"></path></g></g></g></svg>